<mxfile host="app.diagrams.net" agent="Mozilla/5.0 (X11; Linux x86_64; rv:132.0) Gecko/20100101 Firefox/132.0" version="24.7.17">
  <diagram id="SKnoKPlyVVNkmcqZJGz1" name="Page-1">
    <mxGraphModel dx="683" dy="379" grid="1" gridSize="10" guides="1" tooltips="1" connect="1" arrows="1" fold="1" page="1" pageScale="1" pageWidth="960" pageHeight="700" math="0" shadow="0">
      <root>
        <mxCell id="0" />
        <mxCell id="1" parent="0" />
        <mxCell id="lqB4Ch5M-RuXiycukpFL-1" value="S3" style="sketch=0;points=[[0,0,0],[0.25,0,0],[0.5,0,0],[0.75,0,0],[1,0,0],[0,1,0],[0.25,1,0],[0.5,1,0],[0.75,1,0],[1,1,0],[0,0.25,0],[0,0.5,0],[0,0.75,0],[1,0.25,0],[1,0.5,0],[1,0.75,0]];outlineConnect=0;fontColor=#000000;gradientColor=#60A337;gradientDirection=north;fillColor=#277116;strokeColor=#000000;dashed=0;verticalLabelPosition=bottom;verticalAlign=top;align=center;html=1;fontSize=11;fontStyle=0;shape=mxgraph.aws4.resourceIcon;resIcon=mxgraph.aws4.s3;fontFamily=Fira Sans;fontSource=https%3A%2F%2Ffonts.googleapis.com%2Fcss%3Ffamily%3DFira%2BSans;aspect=fixed;" parent="1" vertex="1">
          <mxGeometry x="440" y="280" width="40" height="40" as="geometry" />
        </mxCell>
        <mxCell id="lqB4Ch5M-RuXiycukpFL-2" value="CloudFront" style="sketch=0;points=[[0,0,0],[0.25,0,0],[0.5,0,0],[0.75,0,0],[1,0,0],[0,1,0],[0.25,1,0],[0.5,1,0],[0.75,1,0],[1,1,0],[0,0.25,0],[0,0.5,0],[0,0.75,0],[1,0.25,0],[1,0.5,0],[1,0.75,0]];outlineConnect=0;fontColor=#000000;gradientColor=#945DF2;gradientDirection=north;fillColor=#5A30B5;strokeColor=#000000;dashed=0;verticalLabelPosition=bottom;verticalAlign=top;align=center;html=1;fontSize=11;fontStyle=0;shape=mxgraph.aws4.resourceIcon;resIcon=mxgraph.aws4.cloudfront;fontFamily=Fira Sans;fontSource=https%3A%2F%2Ffonts.googleapis.com%2Fcss%3Ffamily%3DFira%2BSans;aspect=fixed;" parent="1" vertex="1">
          <mxGeometry x="300" y="280" width="40" height="40" as="geometry" />
        </mxCell>
        <mxCell id="lqB4Ch5M-RuXiycukpFL-6" value="Acessa o site" style="edgeStyle=orthogonalEdgeStyle;rounded=0;orthogonalLoop=1;jettySize=auto;html=1;fontSize=10;fontFamily=Fira Sans;fontSource=https%3A%2F%2Ffonts.googleapis.com%2Fcss%3Ffamily%3DFira%2BSans;labelPosition=center;verticalLabelPosition=top;align=center;verticalAlign=bottom;fontColor=#808080;strokeColor=#808080;labelBackgroundColor=none;entryX=0;entryY=0.5;entryDx=0;entryDy=0;entryPerimeter=0;" parent="1" source="lqB4Ch5M-RuXiycukpFL-7" target="lqB4Ch5M-RuXiycukpFL-8" edge="1">
          <mxGeometry relative="1" as="geometry">
            <mxPoint x="120" y="300" as="targetPoint" />
          </mxGeometry>
        </mxCell>
        <mxCell id="lqB4Ch5M-RuXiycukpFL-7" value="UsuÃ¡rio" style="html=1;verticalLabelPosition=bottom;align=center;labelBackgroundColor=none;verticalAlign=top;strokeWidth=2;strokeColor=#0080F0;shadow=0;dashed=0;shape=mxgraph.ios7.icons.user;fontFamily=Fira Sans;fontSource=https%3A%2F%2Ffonts.googleapis.com%2Fcss%3Ffamily%3DFira%2BSans;fontSize=11;fontColor=#000000;fillColor=#000000;" parent="1" vertex="1">
          <mxGeometry x="20" y="280" width="40" height="40" as="geometry" />
        </mxCell>
        <mxCell id="lqB4Ch5M-RuXiycukpFL-8" value="Route 53" style="sketch=0;points=[[0,0,0],[0.25,0,0],[0.5,0,0],[0.75,0,0],[1,0,0],[0,1,0],[0.25,1,0],[0.5,1,0],[0.75,1,0],[1,1,0],[0,0.25,0],[0,0.5,0],[0,0.75,0],[1,0.25,0],[1,0.5,0],[1,0.75,0]];outlineConnect=0;fontColor=#000000;gradientColor=#945DF2;gradientDirection=north;fillColor=#5A30B5;strokeColor=#000000;dashed=0;verticalLabelPosition=bottom;verticalAlign=top;align=center;html=1;fontSize=12;fontStyle=0;aspect=fixed;shape=mxgraph.aws4.resourceIcon;resIcon=mxgraph.aws4.route_53;rounded=1;shadow=0;glass=0;labelBackgroundColor=none;fillStyle=solid;fontFamily=Fira Sans;fontSource=https%3A%2F%2Ffonts.googleapis.com%2Fcss%3Ffamily%3DFira%2BSans;" parent="1" vertex="1">
          <mxGeometry x="160" y="280" width="40" height="40" as="geometry" />
        </mxCell>
        <mxCell id="lqB4Ch5M-RuXiycukpFL-10" value="Resolve para" style="edgeStyle=orthogonalEdgeStyle;rounded=0;orthogonalLoop=1;jettySize=auto;html=1;fontSize=10;fontFamily=Fira Sans;fontSource=https%3A%2F%2Ffonts.googleapis.com%2Fcss%3Ffamily%3DFira%2BSans;labelPosition=center;verticalLabelPosition=top;align=center;verticalAlign=bottom;fontColor=#808080;strokeColor=#808080;labelBackgroundColor=none;entryX=0;entryY=0.5;entryDx=0;entryDy=0;entryPerimeter=0;exitX=1;exitY=0.5;exitDx=0;exitDy=0;exitPerimeter=0;" parent="1" source="lqB4Ch5M-RuXiycukpFL-8" target="lqB4Ch5M-RuXiycukpFL-2" edge="1">
          <mxGeometry relative="1" as="geometry">
            <mxPoint x="300" y="380" as="targetPoint" />
            <mxPoint x="200" y="380" as="sourcePoint" />
          </mxGeometry>
        </mxCell>
        <mxCell id="lqB4Ch5M-RuXiycukpFL-12" value="Consulta" style="edgeStyle=orthogonalEdgeStyle;rounded=0;orthogonalLoop=1;jettySize=auto;html=1;fontSize=10;fontFamily=Fira Sans;fontSource=https%3A%2F%2Ffonts.googleapis.com%2Fcss%3Ffamily%3DFira%2BSans;labelPosition=center;verticalLabelPosition=top;align=center;verticalAlign=bottom;fontColor=#808080;strokeColor=#808080;labelBackgroundColor=none;entryX=0;entryY=0.5;entryDx=0;entryDy=0;entryPerimeter=0;exitX=1;exitY=0.5;exitDx=0;exitDy=0;exitPerimeter=0;" parent="1" source="lqB4Ch5M-RuXiycukpFL-2" target="lqB4Ch5M-RuXiycukpFL-1" edge="1">
          <mxGeometry relative="1" as="geometry">
            <mxPoint x="440" y="370" as="targetPoint" />
            <mxPoint x="340" y="370" as="sourcePoint" />
            <Array as="points">
              <mxPoint x="400" y="300" />
              <mxPoint x="400" y="300" />
            </Array>
          </mxGeometry>
        </mxCell>
        <mxCell id="OCNAH--Q0x_uwBLTg0DV-1" value="DNS" style="text;html=1;align=center;verticalAlign=middle;resizable=0;points=[];autosize=1;strokeColor=none;fillColor=none;fontFamily=Fira Sans;fontSource=https%3A%2F%2Ffonts.googleapis.com%2Fcss%3Ffamily%3DFira%2BSans;fontSize=11;fontColor=#666666;" vertex="1" parent="1">
          <mxGeometry x="160" y="250" width="40" height="30" as="geometry" />
        </mxCell>
        <mxCell id="OCNAH--Q0x_uwBLTg0DV-2" value="CDN" style="text;html=1;align=center;verticalAlign=middle;resizable=0;points=[];autosize=1;strokeColor=none;fillColor=none;fontFamily=Fira Sans;fontSource=https%3A%2F%2Ffonts.googleapis.com%2Fcss%3Ffamily%3DFira%2BSans;fontSize=11;fontColor=#666666;" vertex="1" parent="1">
          <mxGeometry x="300" y="250" width="40" height="30" as="geometry" />
        </mxCell>
        <mxCell id="OCNAH--Q0x_uwBLTg0DV-3" value="Armazenamento" style="text;html=1;align=center;verticalAlign=middle;resizable=0;points=[];autosize=1;strokeColor=none;fillColor=none;fontFamily=Fira Sans;fontSource=https%3A%2F%2Ffonts.googleapis.com%2Fcss%3Ffamily%3DFira%2BSans;fontSize=11;fontColor=#666666;" vertex="1" parent="1">
          <mxGeometry x="410" y="250" width="100" height="30" as="geometry" />
        </mxCell>
      </root>
    </mxGraphModel>
  </diagram>
</mxfile>
